<svg height="16" viewBox="0 0 16 16" width="16" xmlns="http://www.w3.org/2000/svg"><path d="M3 1a1 1 0 0 0-1 1v12a1 1 0 0 0 1 1h10a1 1 0 0 0 1-1V2a1 1 0 0 0-1-1zm.25 1.25h9.5v11.5h-9.5zM4.75 4a.75.75 0 0 0-.75.75v.5a.75.75 0 0 0 .75.75h2.5V4zm4-.75A.75.75 0 0 0 8 4v2a.75.75 0 0 0 .75.75h.5A.75.75 0 0 0 10 6V4a.75.75 0 0 0-.75-.75zm2 .75v2h.5a.75.75 0 0 0 .75-.75v-.5a.75.75 0 0 0-.75-.75zm-6 6a.75.75 0 0 0-.75.75v.5a.75.75 0 0 0 .75.75h.5v-2zm2-.75A.75.75 0 0 0 6 10v2a.75.75 0 0 0 .75.75h.5A.75.75 0 0 0 8 12v-2a.75.75 0 0 0-.75-.75zm2 .75v2h2.5a.75.75 0 0 0 .75-.75v-.5a.75.75 0 0 0-.75-.75z" fill="#f0caa0"/></svg>
